<?xml version="1.0" encoding="UTF-8"?>
<svg width="600" height="600" viewBox="0 0 600 600" fill="none" xmlns="http://www.w3.org/2000/svg">
  <path d="M300 100C350 100 390 140 390 190C390 220 370 240 370 270C370 300 390 320 390 350C390 400 350 440 300 440C250 440 210 400 210 350C210 320 230 300 230 270C230 240 210 220 210 190C210 140 250 100 300 100Z" stroke="currentColor" stroke-width="2" fill="none"/>
  <path d="M270 190C290 190 310 210 310 230C310 250 290 270 270 270C250 270 230 250 230 230C230 210 250 190 270 190Z" stroke="currentColor" stroke-width="2" fill="none"/>
  <path d="M330 190C350 190 370 210 370 230C370 250 350 270 330 270C310 270 290 250 290 230C290 210 310 190 330 190Z" stroke="currentColor" stroke-width="2" fill="none"/>
  <path d="M300 270C320 270 340 290 340 310C340 330 320 350 300 350C280 350 260 330 260 310C260 290 280 270 300 270Z" stroke="currentColor" stroke-width="2" fill="none"/>
  <g transform="translate(0, -100)">
    <path d="M300 100C350 100 390 140 390 190C390 220 370 240 370 270C370 300 390 320 390 350C390 400 350 440 300 440C250 440 210 400 210 350C210 320 230 300 230 270C230 240 210 220 210 190C210 140 250 100 300 100Z" stroke="currentColor" stroke-width="2" fill="none" opacity="0.5"/>
  </g>
  <g transform="translate(100, 0)">
    <path d="M300 100C350 100 390 140 390 190C390 220 370 240 370 270C370 300 390 320 390 350C390 400 350 440 300 440C250 440 210 400 210 350C210 320 230 300 230 270C230 240 210 220 210 190C210 140 250 100 300 100Z" stroke="currentColor" stroke-width="2" fill="none" opacity="0.3"/>
  </g>
</svg> 