<?xml version="1.0" encoding="utf-8"?>
<!DOCTYPE svg PUBLIC "-//W3C//DTD SVG 1.1//EN" "http://www.w3.org/Graphics/SVG/1.1/DTD/svg11.dtd">
<svg version="1.1" xmlns="http://www.w3.org/2000/svg" width="1024px" height="1024px" viewBox="0 0 1024 1024" preserveAspectRatio="xMidYMid meet">
 <g fill="none" stroke="#000000" stroke-width="1">
  <path d="M458.7 158.5C461.8 158.1 465.5 158.7 468.7 159.1C478.7 160.1 489.5 164 497.1 171C503 176.4 507.4 185.7 508.5 193.5C509.1 198.4 508.5 203.5 508.7 208.4C509.2 221.4 509 234.5 509 247.5C509.1 281.4 509.4 315.1 509.4 349C509.4 373.5 509.5 398 509.5 422.5C509.5 430.2 509.4 438 509.4 445.7C509.4 450 510 454.7 509.2 459C508.5 462.2 505.7 462.8 503 463.7C501.1 464.2 499.4 465 497.7 465.7C489.8 469.2 482.5 475.2 477.4 482.1C469 493.2 463.5 506.7 459.5 520C458 525.1 456.8 530.4 455.4 535.7C454.1 540.2 453 544.8 451.2 549.2C450.8 550.2 450.1 553.1 448.7 553.2C447.5 553.2 447.1 551.5 446.8 550.7C445.8 547.8 445 544.8 444.2 541.8C441 529.2 438 516.5 435 504C425.5 466.2 419.1 427.8 410.4 390C409.8 387.5 409.1 385 408.5 382.5C405.5 370.4 400.8 355 387.5 350.7C379.4 348 369.5 350.7 364 357.4C359.8 362.5 357.5 369.1 355.8 375.4C353.1 385.4 351.1 395.7 349 405.8C345.2 422.1 341.8 438.5 338.2 454.8C335.8 466.5 333.5 478.4 330.5 490C327.7 501.7 324.8 513.5 321 525.1C320.1 527.8 319.2 530.5 318 533.1C317.4 534.2 316.5 535.2 315.1 534.8C313.4 534.4 312.2 531.8 311.4 530.4C308.8 525.8 307 520.7 305.1 515.7C300.7 503.7 296.7 491.1 289.2 480.5C286.5 476.5 283.2 473.1 279.7 469.8C274 464.5 267.1 464.1 259.7 463.7C247.4 462.8 235 463.7 222.7 462.8C217.8 462.5 213 462.7 208.1 462.2C206.2 462.1 203.4 461.8 202.4 460C200.8 457 201.1 452.1 201.4 448.8C201.8 443.1 202.1 437.5 202.7 431.8C204.8 409.8 212.2 388.5 225.2 370.5C229.2 365 233.5 359.7 238.2 354.7C241.5 351.2 245.5 348 248.1 343.8C250.5 339.7 250.4 335 250.8 330.4C251.5 323.8 252 317.2 253 310.8C255.7 293.8 262.1 277 271.5 262.5C280.4 249 293 237.8 307.8 231.2C313.5 228.7 319.7 227 325.8 225.5C332.1 224.2 338.5 223.2 345 222.8C348.1 222.5 352.8 223 355.7 221.4C357.1 220.5 357.8 219 358.7 217.5C360 215.4 361.4 213.5 362.8 211.5C368 204.7 373.7 198 380.1 192.1C396.1 177.5 416 166.5 437.1 161.5C441.5 160.5 446 159.5 450.5 159.1C453.2 158.8 456 159 458.7 158.5M572.7 169.2C588.7 167.2 607.2 179.4 608.4 196.1C608.7 200.4 608.8 205.7 607.8 209.8C606.5 215.1 603.1 220.1 599.4 224C596.8 226.5 593.8 228.8 590.7 230.5C588.7 231.5 585.4 232.8 584.1 234.7C583.7 235.2 583.7 236.1 583.7 236.8C583.4 238.8 583.2 240.8 583.2 242.8C582.7 264.7 583.4 286.7 583.4 308.5C583.4 314.7 583.4 320.8 583.8 327C584.1 330.5 584.2 334 586.2 337C592.1 345.7 601 351.7 609.7 357.1C612 358.5 617.1 362.7 619.7 360C620.7 359 620.5 357.2 620.7 356C621 352.7 621 349.2 621 346C621 336.5 621 327.1 620.5 317.7C620.4 313.1 620.8 308.2 619.7 303.8C619 301.5 617.4 300 616.1 298.1C614.4 295.7 612.8 292 613.1 288.8C613.4 285.8 614.1 283 615.7 280.4C620.2 273.2 629.4 270.2 636.8 274.7C639.4 276.2 641.5 278.7 643.1 281.1C646.1 285.7 646.1 290.8 643.5 295.7C642.2 298 640.2 300 639.2 302.4C637.8 305.7 638.1 309.7 638 313.2C637.5 324 638 334.8 638 345.5L638 409.8C638 419.7 638.4 429.7 638.4 439.5C638.4 442 638.7 444.4 638.8 446.8C638.8 447.5 638.8 449 639.5 449.4C640.8 450.1 642.7 448.5 643.5 447.8C647 445.4 649.8 442.4 653 439.5C660.7 432.7 668 425.2 674.8 417.5C679.4 412.2 684 406.7 684.8 399.5C685.8 390.8 685.4 382.1 685.5 373.4C686 358.7 685.8 344.1 685.8 329.4C685.8 320.1 686.1 310.8 685.7 301.5C685.5 298.2 686.2 294.7 685.5 291.5C685.1 290.1 683.4 288.8 682.2 288.1C679.2 286.1 676 284.5 673.2 282.2C666.2 276.4 662 267.7 662 258.4C662 242 676.5 226.7 693.1 226.7C702.7 226.7 711.1 231.2 717.4 238.4C724.7 247 726.8 260.4 722.1 270.8C719.7 276.1 715.2 280.5 710.8 284.2C708.5 286 704.8 287.2 704.1 290.2C703.2 294 703.4 297.8 703.2 301.5C703 308.7 703 315.7 703 322.8C702.8 340.1 702.5 357.2 702.5 374.5C702.5 381.8 702.7 389.2 702.1 396.5C701.8 400.4 702.1 404.2 700.7 408C695.5 422.4 684.5 433.4 673.7 443.8C665.2 451.8 657 460 648.7 468.1C643.8 472.8 638.8 477.7 634 482.4C627.5 488.7 621.1 494.7 613 498.8C601.8 504.2 589.7 505.8 577.8 509.2C569.2 511.7 561.2 514.5 555.8 522.1C554 524.8 552.2 528 551.4 531.2C550.8 533.7 551 536.4 550.8 538.8C550.7 542.4 550.7 546.1 550.5 549.7C550.1 566.2 550 582.7 550 599.2C550 646.1 550 693.1 550.5 740C550.7 756 550.4 772 551.1 787.8C551.4 796 551 804.1 552.5 812.1C553.8 818.7 560.5 823.8 565.4 828C577.7 838.5 593.7 845.1 602.5 859.1C605.1 863.4 607.1 867.8 607.7 872.8C607.8 874.2 608.1 876.4 607.7 877.8C607 879.7 605.2 881.1 603.7 882.2C602.5 883 601.4 883.5 600.1 883.8C592.8 885 591 877 588.5 872C587.5 870 586.4 868.1 585 866.4C578.2 857.5 568 851.8 559 845.5C556.1 843.7 553.4 841.5 550.7 839.5C548.8 838.2 547 836.5 545 835.5C542.2 834.2 540.2 835.8 538.1 837.7C535.1 840.2 532 842.7 528.7 845C521.5 849.7 513.7 853.4 506.5 858C503.1 860.2 499.5 862.5 496.7 865.5C492.5 870 491.4 875.7 488.2 880.7C486.5 883.5 483.8 884 480.7 884C479.4 884 478 884 476.8 883.2C475.1 882.1 474.1 879.5 473.5 877.7C471.7 871 476.8 862.7 480.7 857.5C484.7 852 491.1 848.1 496.8 844.5C506.7 838.2 517 832.7 525.2 824.4C528 821.7 531.2 818.4 532.4 814.7C533.4 811.4 533 807.4 533 804C533 802.1 533 800.4 532.7 798.5C532.7 797.8 532.5 796.7 532 796.1C531.2 795.7 530.2 796.2 529.7 796.5C527.7 797.4 525.7 798.4 523.8 799.5C516 804 508.1 808.1 499.7 811.5C486.7 817 472.2 818.8 458.5 821.5C450.2 823.2 441.8 824.8 434.4 829.1C428.2 832.7 422.5 837.5 419.2 844C418.1 846 417.1 848.1 416.4 850.4C415.8 852.8 415.8 855.2 413.4 856.7C409.8 859 403.8 858.4 401 855C399.8 853.4 399.4 851.4 399.4 849.4C399.4 844 401.8 838.5 404.5 834C407.1 829.5 410.2 825.1 414.1 821.7C419.7 816.7 426.8 813.1 433.7 810.4C441.2 807.5 449.4 806.5 457.2 804.8C476.4 800.7 495.7 797.1 512.1 785.8C519.4 780.8 527 774.5 530.5 766.2C531.7 763.7 531.7 760.7 531.8 758C532.2 753 532.2 747.8 532.2 742.8C532.2 727.4 532.5 712.1 532.5 696.7C532.5 670.7 532.5 644.7 532.7 618.7C532.7 604.7 532.5 590.8 532.8 576.8C533.1 566.4 533 555.8 533.1 545.4C533.1 539.8 533 534.2 533.5 528.7C534 524 535.7 519.4 538.1 515.4C546.5 501.2 561.2 495.1 576.5 491.5C585 489.5 594 488.4 602 484.5C606.1 482.5 610 479.5 613.2 476.2C615 474.5 616.7 472.5 618.1 470.4C621.7 464.5 620.5 456.5 620.7 449.8C621 435.5 620.8 421.1 620.8 406.8C620.8 402.2 620.5 397.5 620.5 393C620.5 391.2 620.8 388.2 619.7 386.8C616.4 382.8 611.1 379.8 607 376.8C601 372.4 594.4 368.5 588.5 364C585.4 361.5 582.5 358.7 579.7 355.8C574.8 351 570.5 345.8 568.4 339.1C565.4 329.7 566.2 318.8 566.2 309C566.2 292.5 566.8 276.1 566.8 259.7C566.8 252 567.5 243.8 566.4 236.1C566.2 235 566 233.4 565 232.7C564 231.8 562.5 231.7 561.4 231C559 229.4 556.5 227.7 554.4 225.7C547.7 219.2 544.1 210.1 544.5 200.8C544.8 196 545.8 191 548 186.5C552.7 177.1 562.4 170.7 572.7 169.2M575.2 183.8C577.2 183.7 579.5 184 581.4 184.4C584.1 185.1 587 186.1 589.1 188.1C597.2 195.8 596.5 210.4 587.1 216.7C584.8 218.2 582 219.1 579.2 219.5C577 219.8 574.2 219.8 572 219.1C559.7 215.1 554.2 198.5 563.8 189C567 185.8 571 184.4 575.2 183.8M691.8 240.5C701.8 239.1 710.5 249.2 710.8 258.7C711 266.7 704.1 274.8 696.2 276C694.2 276.2 692 276 690 275.5C686.7 274.7 683.2 272.8 681 270.2C673.8 262.2 675.8 249.2 684.5 243.4C686.7 242 689.2 241 691.8 240.5M780.7 294.7C783.1 294.4 785.8 295 788.2 295.4C798.1 297 807.4 303.8 811.4 313.1C813.4 318 814 323.7 813.4 329C813 333.5 812 337.7 809.5 341.5C806.8 346 803.1 349.8 798.8 352.7C796.5 354.2 792 355.5 791 358.4C790 361 790.2 364.1 790.1 366.7C789.7 372.7 790 378.8 789.2 384.8C787.5 398.8 782.1 411.7 775 423.7C766.8 437.5 754.5 448.8 742.8 459.7C736 466 728.4 472.5 723.8 480.8C718.7 490.2 717.8 499.8 717.4 510.4C717 520.4 717.7 530.2 717.7 540.2C717.7 547.8 718.1 555.4 718.2 563C718.2 565.7 718.5 568.5 719 571.2C719.1 572.4 719.2 573.7 719.7 574.7C721.7 578.1 727 573.4 729 572.1C737.5 566.4 745.8 560.7 753.7 554.1C764.7 545 774 534.7 780.4 521.8C782.7 517.2 785.4 512.1 785.8 507C786.1 502.2 783 500 780.8 496.2C778 491 778 484.7 781 479.4C785.2 471.8 796.2 469.4 803.7 473.7C806.7 475.4 808.8 478.7 810.4 481.7C811.4 483.5 812.4 485.7 812.5 487.7C812.7 492.2 810.8 495.8 808.4 499.5C806.8 501.7 804.8 504.1 804.1 506.7C801.1 517.8 797.2 528.7 791.1 538.4C785.8 546.7 779.1 554.1 772 560.8C758.8 573.4 743.5 584 727.7 592.7C713.1 600.7 697.8 608.2 681.4 612C671 614.2 660.4 615.4 649.8 616.1C634.8 617.1 618.2 618 606.4 628.4C599.4 634.5 594.2 642.8 592.8 652.1C592 658.4 592.5 665 592.2 671.4C591.5 687.5 592 703.8 592 720C592 726.8 592 733.8 592.2 740.7C592.4 745.1 592.4 749.5 593.4 753.8C595.2 762.8 602 770.2 609 775.8C617 782.1 626.4 786.7 636 790.1C648.4 794.5 661.4 797.2 673.2 803.2C687.1 810.2 698.2 823 702.5 838C703.4 841.2 704 844.7 704 848.1C704 849.8 703.8 851.8 702.8 853.2C701.5 855.1 698.4 856.5 696.2 857C692.7 857.7 688.8 853.7 687.8 850.7C686.4 846.4 685.7 842.1 683.7 838C679.4 829.1 671.8 823 663.4 818.4C653.4 813.1 642.5 810.5 632 807C618.2 802.1 604.2 795.7 593.8 785.4C585.7 777.4 578.8 767.2 576 756.1C574.4 749.8 574.5 743.4 574.4 737C574.2 731.4 574.1 726 574.1 720.4C574.1 707.4 574 694.2 574.1 681.2C574.2 664.4 573.2 647.2 581.1 631.7C589 615.8 605.8 605.5 622.5 601.2C628.5 599.8 634.8 599.5 641 598.7C642.8 598.4 646.5 598.2 647.7 596.8C648.4 595.8 648.4 594.5 648.5 593.4C648.8 590.7 648.7 587.8 648.8 585.1C649.4 577.5 649 569.8 649 562.2C649 558 649.5 552.8 648.2 548.7C647.1 544.8 643.7 542.1 642.4 538.4C638.8 528.8 644.4 519.4 654.1 516.8C663.5 514.5 674.5 521 675 531.2C675.1 535.1 674.7 538.7 672.7 542C670.8 544.8 668 547.1 667 550.2C666.1 553 666.2 555.8 666.1 558.7C665.8 564.4 666 570.1 666 575.8C666 580.5 666 585.2 666.2 590C666.4 591.8 666.4 595 667.7 596.4C669.2 598 672.7 596.7 674.5 596.1C680.5 594.2 686.2 592 691 587.5C693.1 585.4 695.4 583 696.8 580.2C700.5 572.7 699.5 563.7 699.8 555.5C700.4 542.7 700 529.8 700.1 517C700.2 508.1 700.1 499.4 701.7 490.7C705.2 471.5 720.5 458.1 733.8 445.4C749.2 430.7 764 414.8 770.4 394C773 385.7 773.4 377.2 773.4 368.5C773.4 365.1 774 361 772.2 358C771.1 356 769.1 354.7 767.2 353.5C765.1 352.1 763 350.5 761 348.8C754.4 342.8 750.7 334 751.1 325.1C751.7 313.8 757.8 302.5 768.4 297.5C772.4 295.7 776.4 295.2 780.7 294.7M781.4 308.2C783.5 308 786.1 308.5 788.1 309.2C791.7 310.4 794.8 312.5 797 315.7C804 326.1 797.7 342.1 785 343.8C783 344.1 780.8 344 778.8 343.5C765.2 340.2 761.1 322.2 770.8 312.8C773.8 310 777.4 308.8 781.4 308.2M380 380.2C381.2 380 381.8 381.4 382.1 382.4C383 385.1 383.4 388 384 390.8C386.2 402.8 388.4 415 390.5 427.1C392.8 440.5 395.8 453.7 398.8 467C403.4 488.1 408 509.4 413.5 530.4C415.7 538.7 417.8 547 420.7 555C423.4 562.2 426.7 569.7 432.5 575.1C439.5 581.7 450.4 584 459.1 579.2C462.5 577.4 465.4 574.5 467.7 571.2C474.8 561 477.7 548.4 480.7 536.4C483 527.7 485.4 519.1 488.5 510.8C491.4 503.5 495.7 496.5 501.5 491.2C503 490 504.8 488.7 506.7 488C507.2 487.7 508.2 487.2 508.8 487.7C509.5 488.2 509.2 491.4 509.2 492.2C509.2 496.8 509.4 501.2 509.4 505.8C509.4 524.4 509.7 542.8 509.7 561.4C509.7 581.4 509.7 601.2 509.5 621.2C509.5 634.5 509.7 647.8 509.4 661.1C509.2 669.8 509.2 678.4 509.1 687.1C509.1 692.1 509.4 698 508 702.8C500.2 728.8 476.2 748.7 450.1 754.2C442.5 755.8 435.1 756.2 427.4 756.5C420.1 756.8 412.4 757.1 405.1 756.2C389.2 754.2 372.5 747.5 359.8 738C354 733.5 348.4 728.5 343.8 722.8C340.5 719 337.5 713.2 333.1 710.7C330 709 325.8 708.5 322.4 707.7C316.7 706.2 311 704.2 305.5 702C284.5 693 266.7 677.4 255.1 657.5C246.7 642.8 241.2 626.2 238.7 609.4C237.8 603.2 237.1 597 236.7 590.7C236.4 587 236.5 582.7 235.2 579.1C234 575.5 230.8 573.5 228.2 571C224.8 567.5 222 563.7 219.4 559.7C210.5 545.8 206 529.8 203.2 513.7C202.2 508.4 201.8 503.1 201.4 497.8C201.2 495.8 201 493.1 202.2 491.4C204.1 489.2 207.5 489.1 210.1 488.8C217.1 488.1 224.2 488.8 231.2 488.4C240 487.8 249 488.1 257.7 488.5C261.4 488.7 266.1 489 268.8 491.7C271.1 493.8 272.2 497 273.4 499.8C274.5 503.1 275.7 506.2 276.8 509.5C280 519.2 283 529.1 286.5 538.8C288.8 545.1 291.4 551.8 295.7 557.1C300.8 563.4 310.4 567.2 318.5 565.7C323.8 564.8 328.7 561.7 332.4 557.8C336 554 338.4 549 340.5 544.2C344.2 536 347 527.2 349.5 518.5C358.7 488 364.8 456.2 371.1 425C373.4 413.7 375.5 402.2 377.5 390.8C378 388.1 378.5 385.5 378.8 382.8C379 381.8 378.8 380.4 380 380.2"/>
 </g>
</svg>