<?xml version="1.0" encoding="utf-8"?>
<!DOCTYPE svg PUBLIC "-//W3C//DTD SVG 1.0//EN" "http://www.w3.org/TR/2001/REC-SVG-20010904/DTD/svg10.dtd">
<svg version="1.0" xmlns="http://www.w3.org/2000/svg" width="1024px" height="1024px" viewBox="0 0 1024 1024" preserveAspectRatio="xMidYMid meet">
 <defs>
   <style>
     .logo-color {
       fill: #4CAF50;
     }

     @media (prefers-color-scheme: dark) {
       .logo-color {
         fill: #00f5d4;
       }
     }
   </style>
 </defs>
 <g class="logo-color">
  <path d="M477.2 883.3 c-1.8 -0.7 -4.2 -5.8 -4.2 -9 0 -3.8 5 -14.1 9.1 -18.8 3.2 -3.6 10.6 -8.8 28.1 -19.5 8.1 -5 15.7 -11.5 20 -17.4 2.6 -3.6 2.8 -4.6 2.8 -13.1 0 -6.5 -0.4 -9.4 -1.2 -9.8 -0.7 -0.2 -5.6 2.1 -10.8 5.3 -10.2 6.1 -27 13.3 -34.7 14.8 -7.5 1.5 -25.9 5.2 -36 7.3 -15.4 3.2 -27 11.4 -32.2 23 -1.1 2.4 -2.1 5.2 -2.1 6.2 -0.1 6.8 -12.9 7.6 -15.9 1 -3.1 -6.7 3.9 -22.4 14.2 -31.9 5.8 -5.4 19.4 -12.1 28.2 -13.8 28.5 -5.6 43.3 -9.1 51.2 -12.2 16 -6.1 31.2 -17.8 36.3 -28 2.5 -4.9 2.5 -4.9 2.6 -120.9 0.1 -85.6 0.4 -117.3 1.3 -120.8 1.6 -6.9 4.6 -12.3 9.8 -17.8 8.9 -9.5 17.9 -13.5 40.8 -18.3 9.4 -2 14.7 -3.7 19.1 -6.1 7.5 -4.2 14.9 -11.9 16.3 -17.1 1.4 -5.2 1.5 -76.8 0.1 -79.4 -0.9 -1.8 -17.4 -13.9 -28.9 -21.4 -6.1 -3.9 -17.5 -15.6 -19.9 -20.3 -5.1 -9.9 -5.3 -12.8 -4.6 -62.6 0.7 -47 0.5 -50.7 -2.9 -50.7 -0.7 0 -3.7 -2 -6.9 -4.4 -8.1 -6.4 -12.3 -15.2 -12.3 -25.6 0.1 -11.7 4.9 -21.2 13.7 -27.2 7.2 -4.8 11.6 -6.1 20.1 -5.6 12 0.6 22.3 7.2 27.2 17.3 2.3 4.5 2.7 6.9 2.8 14.2 0.2 7.3 -0.2 9.6 -2.1 13.5 -3.4 6.9 -9.3 13 -15.6 16.2 -3 1.5 -6 3.4 -6.6 4.1 -0.8 0.9 -1 16 -0.8 49.7 0.3 48.4 0.3 48.4 3 52.5 4 6.1 9.3 11 19.1 17.4 10.1 6.7 12.2 7.5 14.3 5.8 1.4 -1.1 1.5 -5 1.2 -28.8 -0.3 -27.6 -0.3 -27.6 -3.7 -31.8 -13.1 -16.3 9.5 -36.9 23.6 -21.5 6.2 6.7 6.4 13.6 0.7 21.1 -3.4 4.4 -3.4 4.4 -3.4 27.5 -0.1 99.4 0.1 122 1.3 122.8 1.6 1 4.2 -0.9 13.4 -9.5 16.3 -15.2 26.1 -25.9 29.4 -32 3.4 -6.2 3.4 -6.2 3.7 -60.2 0.2 -29.7 0 -55 -0.3 -56.2 -0.3 -1.4 -2.7 -3.4 -6.6 -5.4 -22.5 -12 -22.5 -42.5 0.1 -55.6 7.9 -4.6 17.8 -4.9 27.4 -0.9 5.5 2.3 13.1 10 15.7 15.9 3.1 7.2 3.1 18.2 0 25.4 -2.4 5.4 -10.1 13.4 -15.9 16.5 -3.1 1.7 -3.1 1.7 -3.4 59 -0.3 53.4 -0.5 57.6 -2.3 62.3 -4.2 11 -10.2 19.1 -24.6 33.1 -4.6 4.4 -18.7 18.1 -31.4 30.5 -21.7 21.1 -23.5 22.7 -31.9 26.7 -5 2.5 -12 4.9 -16 5.7 -12.6 2.4 -27 6.6 -31.9 9.3 -5.9 3.2 -11.6 10.6 -13.4 17.5 -1.5 5.8 -1.8 126.1 -0.6 226.2 0.6 55.8 0.6 55.8 5.2 61 7.3 8.2 14.4 13.9 29.6 23.8 12.4 8 21.2 19.9 22.2 30.3 0.5 4.7 0.3 5.5 -2 7.8 -6.1 6.1 -13 3.6 -16 -5.7 -2.5 -7.7 -9 -14.6 -21.9 -23.2 -5.6 -3.8 -13 -9 -16.3 -11.5 -8.6 -6.6 -8.7 -6.6 -14.3 -1.7 -4.5 4 -9.1 7.2 -15.4 10.7 -22.4 12.3 -27.5 16.6 -30.8 25.9 -1.3 3.4 -3.2 6.9 -4.4 7.6 -2 1.5 -6.8 1.9 -9.4 0.8z m223.1 -608.7 c4 -1.6 8.1 -6.4 9.7 -11.1 3.9 -11.8 -7.3 -25.1 -19.1 -22.9 -10 1.9 -16.4 12 -13.8 21.7 1.5 5.8 4.2 9.1 9.1 11.6 5 2.4 9.5 2.7 14.1 0.7z m-113.2 -58 c5.3 -3.5 8.3 -10.3 7.6 -16.8 -1.2 -10.2 -7.8 -16.1 -17.9 -16.1 -20.6 0 -24.8 27.9 -5.3 35.1 4.3 1.6 11.3 0.6 15.6 -2.2z"/>
  <path d="M691.3 855.1 c-2.5 -1.6 -3.3 -3 -4.2 -7 -4.3 -20.2 -17.9 -30.8 -51.4 -40.2 -8.6 -2.4 -23.4 -9.1 -31.3 -14.1 -3.4 -2.1 -9.4 -7.2 -13.2 -11.3 -8.3 -8.7 -14.4 -20.3 -16.1 -30.6 -1.4 -8.5 -1.5 -92 -0.1 -100.9 3.2 -20.2 13.2 -34.3 30.8 -43.3 10.8 -5.6 16.9 -7.3 30 -8.6 5.7 -0.5 11 -1.5 11.8 -2.2 1.1 -0.9 1.4 -5.5 1.4 -24.9 0 -23.7 0 -23.7 -2.9 -27.4 -3.9 -4.9 -5.5 -9.9 -4.7 -14.8 0.9 -5.5 3.7 -9.2 9.2 -11.8 11.5 -5.6 24.4 2 24.4 14.4 0 5.8 -1 8.2 -5.4 13.5 -3.6 4.3 -3.6 4.3 -3.6 26.6 0 25.8 0 25.7 7.7 23.7 8.9 -2.4 14.3 -5.4 18.8 -10.4 7.3 -8.1 7.5 -9.7 7.5 -51.2 0 -38.9 0.6 -44.7 5.4 -55.1 3.8 -8.4 9.7 -16.4 17.7 -24.1 4.1 -3.8 11.6 -11 16.7 -16 16.7 -15.9 26.6 -31.1 31.3 -47.9 1.7 -6.2 2.2 -10.9 2.3 -21 0.1 -13 0.1 -13 -7 -17.7 -8.2 -5.4 -12.7 -11.5 -14.5 -19.8 -2.5 -11.8 1.1 -23.2 10 -31.2 8 -7.2 18.9 -9 31.5 -5.4 6.7 2 14.6 9 17.8 16.1 3.1 6.9 3.2 19 0.1 25.7 -2.8 6.2 -9.4 13.2 -14.9 15.8 -2.4 1.2 -4.9 3 -5.4 4 -0.6 1 -1 7 -1 13.2 0 17.7 -3.7 32.2 -12.2 47.5 -2.7 5 -6.2 10.5 -7.7 12.3 -8.4 10.1 -15 17.3 -19.3 21.2 -2.8 2.3 -9.4 8.6 -14.7 13.8 -7.8 7.6 -10.5 11 -13.4 17 -5.4 11 -6 17.8 -5 58.5 0.9 39.7 0.1 37.6 12.3 29.8 18.3 -11.6 33.7 -24.9 42.7 -36.7 5.9 -7.8 12.4 -21.3 13 -27 0.5 -3.8 0.1 -4.9 -2.6 -8.3 -4 -5.1 -5.3 -9.5 -4.1 -14.6 1.8 -8.4 7.6 -13.2 15.8 -13.2 7.7 0 11.6 2.5 15.4 9.5 3.7 7 3.3 11.1 -2.2 18.9 -2.2 3.1 -4 6.4 -4 7.2 0 3.3 -6.1 19.3 -10.1 26.5 -12.2 22.2 -40.5 46.2 -75.1 63.7 -24.8 12.7 -40.9 16.9 -69.8 18.7 -25 1.4 -36.2 5.2 -45.6 15.2 -5.8 6.1 -8.9 12.1 -10.4 19.8 -0.6 3.3 -1 24.1 -1 52.6 0 50.2 0 50.1 5 58.9 7.1 12.4 25 23.8 46.9 30 13.8 3.8 27.4 9 32.1 12.2 2.4 1.5 5.4 3.5 6.7 4.4 5.1 3.4 13.3 13.2 16.2 19.2 4.7 9.8 6.4 20.3 4.1 24.7 -0.8 1.5 -5.7 4 -7.9 4 -0.3 0 -2 -0.9 -3.8 -1.9z m96.8 -512.2 c9.9 -3.4 14.6 -15.3 10 -25.5 -4.7 -10.4 -20.4 -12.5 -28 -3.9 -6.7 7.7 -6.2 19.5 1.3 25.8 5.2 4.4 10.6 5.6 16.7 3.6z"/>
  <path d="M404.6 756 c-10.1 -1.6 -20.8 -5 -30.1 -9.5 -14.3 -7 -24.2 -15.1 -34.5 -28.6 -5.9 -7.6 -5.9 -7.6 -13.7 -9.4 -33.9 -7.9 -60.3 -28.3 -74.7 -57.9 -8.9 -18.2 -12.9 -34.1 -14.7 -57.6 -1.2 -15.5 -1.2 -15.5 -6.1 -19.8 -15.1 -13.5 -25.9 -39.2 -28.7 -68.1 -1.7 -18 -4.3 -16.5 30.7 -16.9 32.5 -0.3 34.5 0.1 38.2 6 1.1 1.8 4.1 9.8 6.6 17.8 12.9 41.3 17.2 48.7 30.1 52.6 6.7 2 11.3 1.7 17.1 -1.2 6.3 -3.1 10.2 -7.7 14.7 -16.9 6 -12.7 14.4 -40.9 20.4 -69 1.1 -4.9 3.1 -14.2 4.5 -20.5 5.7 -26.2 14.6 -72.8 14.6 -76.4 0 -0.3 0.6 -0.6 1.4 -0.6 1.6 0 2.1 2 5.6 22.5 3.4 19.5 8 43.4 10 52 1 4.4 2.6 11.6 3.5 16 0.9 4.4 2.9 13.6 4.5 20.5 13.2 56.3 17.2 69.3 24.4 79.2 6.9 9.6 17 13.4 27.2 10.3 10.6 -3.1 17.9 -15.2 23.9 -39.4 7 -27.8 11.3 -38.5 19.3 -47.3 3.8 -4.2 8.7 -7.2 10.2 -6.3 0.5 0.3 0.8 42.6 0.7 105.8 -0.2 99.2 -0.3 105.5 -2.1 110.7 -5.6 16.7 -17.2 31 -32.5 39.9 -15.4 9 -27.4 12.1 -48.6 12.6 -8.8 0.2 -18.6 0 -21.9 -0.5z"/>
  <path d="M447.1 551.4 c-2.1 -4.6 -14.9 -57.4 -20 -82.4 -15.9 -78 -19.6 -93.7 -24.2 -103.6 -6 -12.7 -16.7 -18.4 -28.2 -15 -11.5 3.5 -16.5 12 -22.1 38.2 -3.6 16.4 -8.3 38.3 -11.7 53.9 -1.7 7.7 -4.1 19.2 -5.5 25.5 -6.2 30.5 -15.3 63.3 -18.3 66.3 -2.9 2.9 -6.8 -4 -14.3 -25.3 -6.3 -17.8 -12 -28.4 -19.2 -35.5 -10.2 -10.2 -9 -9.9 -46.9 -10.5 -36.3 -0.6 -34.1 -0.1 -35.2 -7.5 -0.8 -5.2 1 -27.3 3.1 -37.2 5.3 -26 16.5 -46.2 37.5 -67.8 7.8 -8 7.8 -8 8.9 -21.9 0.6 -7.7 1.8 -17.3 2.6 -21.5 6.3 -30.3 21 -55 40.9 -68.5 14.6 -9.9 27.9 -14 53.9 -16.2 7.4 -0.6 7.9 -0.8 9.5 -3.6 3.6 -6.6 12.7 -17.7 20.3 -25 28.2 -27 69.5 -40.8 99.3 -33.3 7.6 2 17.4 7.5 21.4 12 4.2 4.8 9.1 15.7 9.6 21.3 0.7 6.9 1.4 259.7 0.8 264.2 -0.5 3.6 -0.8 3.8 -6.4 5.5 -7.7 2.4 -16.7 8.3 -22.7 15 -9 10.1 -17.7 28.7 -22.7 48.6 -6.4 25.1 -8.1 29.2 -10.4 24.3z"/>
 </g>
</svg>