<?xml version="1.0" standalone="no"?>
<!DOCTYPE svg PUBLIC "-//W3C//DTD SVG 20010904//EN"
 "http://www.w3.org/TR/2001/REC-SVG-20010904/DTD/svg10.dtd">
<svg version="1.0" xmlns="http://www.w3.org/2000/svg"
 width="1024.000000pt" height="1024.000000pt" viewBox="0 0 1024.000000 1024.000000"
 preserveAspectRatio="xMidYMid meet">

<g transform="translate(0.000000,1024.000000) scale(0.100000,-0.100000)"
fill="#000000" stroke="none">
<path d="M0 5120 l0 -5120 5120 0 5120 0 0 5120 0 5120 -5120 0 -5120 0 0
-5120z m4886 2113 c98 -38 157 -105 182 -208 14 -56 26 -1763 13 -1798 -8 -19
-30 -36 -84 -61 -96 -46 -114 -72 -172 -261 -25 -82 -53 -170 -62 -195 -52
-144 -185 -148 -252 -7 -35 76 -103 354 -226 922 -46 215 -43 205 -66 205 -11
0 -17 5 -14 10 3 6 3 10 0 10 -15 0 -38 -88 -90 -346 -63 -319 -126 -582 -154
-648 -26 -59 -84 -122 -120 -129 -39 -8 -94 8 -130 39 -18 14 -42 55 -61 102
-61 147 -112 257 -128 276 -16 17 -32 18 -205 15 -228 -5 -217 2 -217 -139 0
-169 45 -300 139 -403 l51 -55 0 -83 c1 -318 205 -576 526 -663 85 -23 92 -27
159 -93 152 -150 299 -221 495 -238 157 -14 272 27 383 136 76 76 111 142 127
241 13 85 54 114 95 68 40 -44 -7 -214 -89 -323 -122 -163 -265 -231 -486
-230 -223 0 -390 72 -577 247 -61 57 -89 75 -128 86 -352 95 -586 372 -612
720 -6 79 -9 88 -45 134 -87 109 -138 257 -145 421 -3 66 -1 126 5 149 8 28 8
69 1 144 -18 177 16 379 91 539 49 105 88 162 171 248 67 69 67 71 83 156 62
334 256 556 566 649 69 21 82 30 162 106 158 152 323 240 515 274 81 15 241 5
299 -17z m785 -68 c99 -70 129 -150 95 -253 -18 -53 -81 -120 -144 -154 l-32
-17 0 -263 c0 -286 9 -379 42 -447 11 -24 61 -85 111 -135 49 -50 82 -81 73
-70 -16 21 -16 22 1 20 10 0 21 -10 25 -21 3 -11 6 62 7 162 1 166 -1 186 -19
215 -57 93 25 207 120 168 60 -25 81 -106 42 -160 -22 -29 -22 -35 -22 -441 0
-410 0 -411 21 -406 18 5 18 3 7 -11 -26 -33 109 88 183 165 126 130 129 141
129 543 l0 300 -38 23 c-52 34 -107 97 -122 142 -28 84 14 198 91 255 73 53
155 52 236 -3 154 -104 140 -296 -29 -400 l-28 -17 0 -299 c0 -164 -4 -323
-10 -352 -5 -30 -26 -87 -46 -127 -30 -61 -55 -92 -157 -190 -67 -64 -158
-153 -202 -197 -122 -120 -194 -184 -229 -202 -17 -9 -73 -22 -125 -30 -157
-22 -264 -89 -312 -196 l-24 -52 0 -815 c0 -783 1 -817 19 -867 29 -79 94
-153 204 -237 145 -109 205 -203 171 -265 -28 -50 -91 -41 -109 16 -19 60 -58
110 -129 166 -36 28 -90 72 -120 96 -29 25 -61 46 -70 46 -9 0 -34 -25 -57
-55 -23 -31 -83 -87 -138 -129 -74 -56 -105 -87 -127 -127 -34 -60 -59 -73
-94 -50 -31 21 -33 67 -5 113 10 18 52 58 92 90 175 139 234 222 243 344 3 35
1 55 -3 44 -4 -11 -17 -20 -29 -21 -19 0 -21 2 -10 15 6 9 -3 3 -22 -12 -78
-65 -222 -120 -407 -157 -131 -26 -186 -49 -237 -98 -45 -43 -68 -85 -91 -163
-16 -57 -28 -69 -70 -69 -48 0 -59 48 -29 136 36 109 117 201 220 250 29 13
104 36 166 49 279 62 424 143 489 274 l23 46 5 705 5 705 24 58 c59 143 200
242 379 269 43 6 93 19 113 29 50 25 106 90 119 140 15 55 13 354 -2 383 -6
11 -61 74 -122 139 -220 234 -226 251 -226 642 0 155 -3 296 -6 313 -5 24 -17
36 -48 52 -110 57 -153 146 -122 253 20 68 63 119 128 152 45 22 63 26 120 23
55 -3 75 -9 109 -33z m1388 -820 c193 -68 218 -290 49 -420 l-46 -35 -7 -77
c-18 -224 -33 -250 -285 -508 -105 -107 -194 -207 -205 -230 -17 -35 -20 -72
-26 -275 -6 -239 -10 -265 -53 -349 -9 -17 -13 -30 -9 -29 4 1 18 -1 30 -5 45
-16 204 74 306 172 127 122 199 308 152 391 -17 30 -19 83 -4 113 32 63 111
77 160 28 40 -41 40 -93 -1 -149 -16 -23 -30 -54 -30 -68 0 -90 -68 -241 -154
-345 -163 -194 -387 -289 -821 -349 -251 -35 -278 -40 -332 -66 -66 -32 -130
-96 -159 -159 -36 -77 -46 -176 -42 -388 3 -175 6 -197 27 -244 39 -88 142
-165 251 -188 171 -36 385 -157 458 -259 50 -70 84 -159 80 -214 -3 -41 -7
-48 -31 -56 -37 -13 -57 9 -87 94 -12 35 -34 82 -48 103 -58 87 -197 167 -403
231 -195 60 -287 138 -332 280 -20 66 -22 89 -21 311 1 219 3 246 24 305 69
203 201 305 433 335 36 5 59 15 85 40 l37 33 3 157 c4 142 2 161 -18 206 -23
54 -20 75 12 121 37 53 133 45 163 -13 22 -41 18 -81 -10 -123 -23 -34 -25
-49 -30 -179 -3 -78 -8 -153 -11 -167 -3 -19 -2 -21 5 -10 8 12 13 12 23 2 9
-9 9 -12 -2 -12 -7 0 -11 -2 -8 -5 9 -10 74 23 124 63 32 25 62 62 84 103 l35
64 6 235 c7 253 15 304 64 370 14 19 106 114 204 210 220 216 240 250 248 412
l6 104 -26 11 c-43 20 -109 86 -128 128 -38 83 -18 166 57 242 69 70 125 86
203 58z"/>
<path d="M4635 7151 c-183 -29 -345 -116 -512 -275 -84 -79 -92 -84 -162 -101
-192 -47 -351 -173 -434 -346 -47 -95 -87 -234 -87 -299 0 -30 -10 -45 -76
-110 -125 -122 -198 -253 -234 -418 -22 -100 -36 -266 -26 -306 l6 -26 210 0
c115 0 219 -4 232 -9 31 -12 86 -68 108 -111 10 -19 34 -87 53 -150 41 -131
58 -160 92 -160 50 0 72 68 155 470 106 514 130 595 186 639 54 43 109 39 154
-9 33 -36 63 -144 155 -565 112 -513 134 -603 160 -632 l22 -27 18 34 c10 18
41 109 70 202 29 92 63 183 75 203 26 43 98 100 146 115 30 10 34 15 34 48 3
217 -2 1484 -6 1567 -8 154 -37 212 -125 249 -46 19 -149 27 -214 17z m5
-2411 c0 -5 -2 -10 -4 -10 -3 0 -8 5 -11 10 -3 6 -1 10 4 10 6 0 11 -4 11 -10z"/>
<path d="M5490 7083 c-126 -65 -92 -233 47 -233 84 0 157 91 133 165 -23 69
-113 103 -180 68z"/>
<path d="M6286 6676 c-40 -40 -51 -80 -36 -122 39 -101 157 -119 210 -32 34
57 20 123 -36 167 -43 34 -96 28 -138 -13z"/>
<path d="M6948 6235 c-33 -19 -60 -66 -61 -110 -2 -59 53 -115 113 -117 46 -1
77 20 101 70 19 38 20 49 10 81 -22 74 -102 111 -163 76z"/>
</g>
</svg>
